<svg xmlns="http://www.w3.org/2000/svg" width="1400" height="800" viewBox="0 0 1400 800"><rect width="1400" height="800" fill="#f4f7fb"/><rect width="235" height="800" fill="#14213d"/><text x="28" y="55" fill="white" font-family="Arial" font-size="22" font-weight="700">🛒 E-Commerce</text><rect x="15" y="90" width="205" height="48" rx="7" fill="#0d6efd"/><g fill="#fff" font-family="Arial" font-size="16"><text x="35" y="121">⌂  Dashboard</text><text x="35" y="175">▣  Products</text><text x="35" y="225">♟  Users</text><text x="35" y="275">🛒  Orders</text><text x="35" y="325">▥  Monitoring</text></g><text x="270" y="70" fill="#14213d" font-family="Arial" font-size="32" font-weight="700">Dashboard</text><text x="270" y="100" fill="#68758a" font-family="Arial" font-size="16">Live data from the FastAPI microservices.</text><rect x="1150" y="52" width="175" height="34" rx="17" fill="#d1e7dd"/><text x="1170" y="75" fill="#146c43" font-family="Arial" font-size="14">● System Online</text><g font-family="Arial"><rect x="270" y="135" width="250" height="115" rx="10" fill="white"/><rect x="535" y="135" width="250" height="115" rx="10" fill="white"/><rect x="800" y="135" width="250" height="115" rx="10" fill="white"/><rect x="1065" y="135" width="260" height="115" rx="10" fill="white"/><g fill="#68758a" font-size="14"><text x="295" y="165">Total Products</text><text x="560" y="165">Total Users</text><text x="825" y="165">Total Orders</text><text x="1090" y="165">API Status</text></g><g fill="#14213d" font-size="30" font-weight="700"><text x="295" y="205">24</text><text x="560" y="205">18</text><text x="825" y="205">32</text><text x="1090" y="205">OK</text></g><g fill="#198754" font-size="13"><text x="295" y="228">Live</text><text x="560" y="228">Live</text><text x="825" y="228">Live</text><text x="1090" y="228">Live</text></g><rect x="270" y="275" width="650" height="450" rx="10" fill="white"/><text x="295" y="315" fill="#14213d" font-size="20" font-weight="700">Recent Orders</text><line x1="295" y1="345" x2="895" y2="345" stroke="#dee2e6"/><g fill="#68758a" font-size="13"><text x="300" y="370">ORDER ID</text><text x="600" y="370">STATUS</text></g><g fill="#14213d" font-size="15"><text x="300" y="410">ORD-1004</text><text x="300" y="455">ORD-1003</text><text x="300" y="500">ORD-1002</text><text x="300" y="545">ORD-1001</text></g><g fill="#198754" font-size="14"><text x="600" y="410">● created</text><text x="600" y="455">● created</text><text x="600" y="500">● created</text><text x="600" y="545">● created</text></g><rect x="945" y="275" width="380" height="450" rx="10" fill="white"/><text x="970" y="315" fill="#14213d" font-size="20" font-weight="700">System Services</text><g font-size="15" fill="#14213d"><text x="970" y="360">●  Product Service</text><text x="970" y="405">●  User Service</text><text x="970" y="450">●  Order Service</text><text x="970" y="495">●  MySQL</text><text x="970" y="540">●  Redis</text><text x="970" y="585">●  Nginx</text></g><g fill="#198754" font-size="14"><text x="1210" y="360">Running</text><text x="1210" y="405">Running</text><text x="1210" y="450">Running</text><text x="1210" y="495">Running</text><text x="1210" y="540">Running</text><text x="1210" y="585">Running</text></g></g><text x="270" y="765" fill="#68758a" font-family="Arial" font-size="13">E-Commerce Platform v1.0.0 · Powered by FastAPI · Deployed with Ansible</text></svg>